<mxfile host="app.diagrams.net" modified="2022-05-20T12:19:24.707Z" agent="5.0 (Macintosh; Intel Mac OS X 10_15_7) AppleWebKit/537.36 (KHTML, like Gecko) Chrome/101.0.4951.64 Safari/537.36" etag="H3J-_-rsgEjZQFnbNgQ1" version="18.0.7" type="github">
  <diagram id="zcrZRlGJuxcmZLZYTgZw" name="Page-1">
    <mxGraphModel dx="1018" dy="575" grid="1" gridSize="10" guides="1" tooltips="1" connect="1" arrows="1" fold="1" page="1" pageScale="1" pageWidth="827" pageHeight="1169" math="0" shadow="0">
      <root>
        <mxCell id="0" />
        <mxCell id="1" parent="0" />
        <mxCell id="tT1eWMQEA7u8HPIp_SYt-2" style="edgeStyle=orthogonalEdgeStyle;rounded=0;orthogonalLoop=1;jettySize=auto;html=1;fontColor=#000000;" edge="1" parent="1" source="tT1eWMQEA7u8HPIp_SYt-1" target="tT1eWMQEA7u8HPIp_SYt-3">
          <mxGeometry relative="1" as="geometry">
            <mxPoint x="414" y="190" as="targetPoint" />
          </mxGeometry>
        </mxCell>
        <mxCell id="tT1eWMQEA7u8HPIp_SYt-1" value="&lt;p style=&quot;margin: 0px; font-variant-numeric: normal; font-variant-east-asian: normal; font-stretch: normal; font-size: 16px; line-height: normal; font-family: Menlo; text-align: start;&quot; class=&quot;p1&quot;&gt;Users&lt;/p&gt;" style="rounded=0;whiteSpace=wrap;html=1;" vertex="1" parent="1">
          <mxGeometry x="354" y="40" width="120" height="60" as="geometry" />
        </mxCell>
        <mxCell id="tT1eWMQEA7u8HPIp_SYt-3" value="" style="rounded=0;whiteSpace=wrap;html=1;labelBackgroundColor=#1A1A1A;fontColor=#000000;" vertex="1" parent="1">
          <mxGeometry x="354" y="160" width="120" height="60" as="geometry" />
        </mxCell>
      </root>
    </mxGraphModel>
  </diagram>
</mxfile>
